<?xml version="1.0" standalone="no"?>
<!DOCTYPE svg PUBLIC "-//W3C//DTD SVG 1.1//EN" "http://www.w3.org/Graphics/SVG/1.1/DTD/svg11.dtd" >
<svg xmlns="http://www.w3.org/2000/svg" xmlns:xlink="http://www.w3.org/1999/xlink" version="1.1" viewBox="-10 0 266 256">
   <path fill="currentColor"
d="M188 50q37 4 48 22q3 5 -7 6q-6 3 -9 -3q-15 -14 -33 -22q-2 0 -2 -1q1 -1 3 -2zM96 65q-1 -2 1 -1q10 12 14 7q2 -2 4 2q7 13 -1 14q-4 2 -8 -2q-8 -7 -10 -20zM141 85q42 20 77 62q6 8 13 13q1 1 1 3q-1 3 -5 4l-15 5q-7 3 -19 3q-104 -3 -124 -71q0 -5 3 -3
q31 75 133 66q7 0 8 -2t-1 -8q-16 -33 -72 -70q-4 -3 1 -2zM41 110q-1 12 -2 18q-3 13 3 18q7 10 -2 13q-5 4 -8 0q-12 -14 -6 -27q1 -4 5 -5q2 -2 5 -11q1 -3 3 -7q1 -3 2 1z" />
</svg>
