<?xml version="1.0" standalone="no"?>
<!DOCTYPE svg PUBLIC "-//W3C//DTD SVG 1.1//EN" "http://www.w3.org/Graphics/SVG/1.1/DTD/svg11.dtd" >
<svg xmlns="http://www.w3.org/2000/svg" xmlns:xlink="http://www.w3.org/1999/xlink" version="1.1" viewBox="-10 0 267 256">
   <path fill="currentColor"
d="M195 43q2 3 1 5q0 1 -3 1q-10 2 -14 11q-8 21 -20 41q-5 6 -10 3q-2 0 -3 -2q-2 -1 -3 -2q-7 4 -13 8q-5 3 0 -2q8 -6 5 -6q-8 2 -17 2q-4 -1 0 -5q-1 -8 -4 -7q-4 -3 0 -9v-1q2 -3 1 -8q-2 -13 -3 -30q-1 -3 1 0q2 13 4 29q0 1 1 1q1 21 11 24q13 -1 16 -6q1 -2 5 -2
q10 5 5 6q-5 2 -8 3q7 4 11 -4q13 -23 20 -58q0 -7 -8 -9q-22 2 -36 8q-7 3 -14 0q-2 0 0 -1q12 0 22 -5q10 -3 28 -3q12 -1 25 18zM50 27q13 4 25 8q6 1 5 6q-1 8 -8 4q-16 -5 -24 -16q-3 -3 2 -2zM157 63q-4 2 -3 2q-9 5 -18 12q-4 4 -2 -1l2 -2q1 -2 2 -3t0 -2h-3
q-5 2 -10 1q-5 0 -1 -1q15 -4 18 -7q0 -3 13 -3q2 1 2 2q1 2 0 2zM44 90q4 3 0 6q-11 4 -32 -3q-3 0 0 -1q19 2 32 -2zM182 121q8 1 17 13q2 4 7 7q2 5 -2 6q-3 -1 -6 -1q-8 14 -37 27h45q7 -7 12 -5l28 20q2 5 -2 7q-6 1 -14 -9q-7 -7 -22 -10q-29 -2 -74 1q-41 4 -69 10
l-6 18q-2 8 -1 14q0 4 -2 2q-9 -8 -6 -8t9 -25q-9 5 -13 -1q-2 -1 -2 -2t3 -1q4 1 10 0q2 0 4 -1q3 -12 9 -28q1 -4 3 -9q3 -6 2 1q-1 3 -3 11q-3 11 -6 24q15 -2 27 -3q13 -2 25 -3q-3 -2 -8 -5q-8 -5 -7 -9q-2 -4 -6 -8q-5 -6 2 -15q4 -4 1 1q-5 5 0 10q9 16 24 25h4
q4 -1 7 -1q-13 -5 -11 -30q0 -4 2 -1q3 7 3 11q-1 8 6 16q18 -23 12 -43q-13 3 -21 7q-9 4 -15 4q-3 1 0 -1q30 -16 71 -16zM150 126q11 11 9 14q-7 19 -20 34q7 -1 15 -1q36 -15 40 -38q-1 -10 -12 -12q-7 1 -16 1z" />
</svg>
