<?xml version="1.0" encoding="UTF-8" standalone="no"?>
<svg
   version="1.1"
   viewBox="-10 0 266 256"
   id="svg4"
   xmlns="http://www.w3.org/2000/svg"
   xmlns:svg="http://www.w3.org/2000/svg">
  <defs
     id="defs8" />
  <path
     fill="currentColor"
     d="M188 50q37 4 48 22q3 5 -7 6q-6 3 -9 -3q-15 -14 -33 -22q-2 0 -2 -1q1 -1 3 -2zM96 65q-1 -2 1 -1q10 12 14 7q2 -2 4 2q7 13 -1 14q-4 2 -8 -2q-8 -7 -10 -20zM141 85q42 20 77 62q6 8 13 13q1 1 1 3q-1 3 -5 4l-15 5q-7 3 -19 3q-104 -3 -124 -71q0 -5 3 -3 q31 75 133 66q7 0 8 -2t-1 -8q-16 -33 -72 -70q-4 -3 1 -2zM41 110q-1 12 -2 18q-3 13 3 18q7 10 -2 13q-5 4 -8 0q-12 -14 -6 -27q1 -4 5 -5q2 -2 5 -11q1 -3 3 -7q1 -3 2 1z"
     id="path2"
     style="fill:none;stroke:#f30000;stroke-opacity:1" />
  <path
     style="fill:none;stroke:#000000;stroke-width:1px;stroke-linecap:butt;stroke-linejoin:miter;stroke-opacity:1"
     d="M 39,109 27.577982,142.38532 40,159"
     id="path967" />
  <path
     style="fill:none;stroke:#000000;stroke-width:1px;stroke-linecap:butt;stroke-linejoin:miter;stroke-opacity:1"
     d="m 69,104 c 0,0 38.4965,74.32065 113.22925,67.26256 74.73275,-7.05809 41.3106,-13.49341 41.3106,-13.49341 0,0 -43.5941,-46.91557 -59.57861,-57.08752 C 147.97674,90.509668 141,85 141,85"
     id="path969" />
  <path
     style="fill:none;stroke:#000000;stroke-width:1px;stroke-linecap:butt;stroke-linejoin:miter;stroke-opacity:1"
     d="m 96,65 c 0,0 16.71181,25.920966 15.85591,15.960483 C 111,71 111,71 111,71"
     id="path971" />
  <path
     style="fill:none;stroke:#000000;stroke-width:1px;stroke-linecap:butt;stroke-linejoin:miter;stroke-opacity:1"
     d="m 188,50 45.9194,29.507346"
     id="path973" />
</svg>
