<?xml version="1.0" encoding="UTF-8" standalone="no"?>
<svg
   version="1.1"
   viewBox="-10 0 275 256"
   id="svg4"
   sodipodi:docname="瑜1.svg"
   inkscape:version="1.1 (c68e22c387, 2021-05-23)"
   xmlns:inkscape="http://www.inkscape.org/namespaces/inkscape"
   xmlns:sodipodi="http://sodipodi.sourceforge.net/DTD/sodipodi-0.dtd"
   xmlns="http://www.w3.org/2000/svg"
   xmlns:svg="http://www.w3.org/2000/svg">
  <defs
     id="defs8" />
  <sodipodi:namedview
     id="namedview6"
     pagecolor="#505050"
     bordercolor="#eeeeee"
     borderopacity="1"
     inkscape:pageshadow="0"
     inkscape:pageopacity="0"
     inkscape:pagecheckerboard="0"
     showgrid="false"
     inkscape:zoom="3.40625"
     inkscape:cx="79.706422"
     inkscape:cy="128.14679"
     inkscape:window-width="1920"
     inkscape:window-height="1057"
     inkscape:window-x="-8"
     inkscape:window-y="-8"
     inkscape:window-maximized="1"
     inkscape:current-layer="svg4" />
  <path
     fill="currentColor"
     d="M129 112q1 -4 5 -2q7 2 14 7q3 5 -1 5q-6 3 -6 7q-6 46 8 84q-1 6 -7 2q-3 -5 -8 -9q-7 -3 -11 -9q-3 -2 1 -2q18 9 15 1q-1 -4 -2 -16q-1 -9 -1 -13l-9 3q-11 2 -18 3q0 16 2 31q0 6 -3 6t-4 -5q0 -1 -1 -6q-1 -3 0 -4v-3q1 -1 2 -3q1 -24 -1 -67q-1 -3 2 1q9 -8 23 -11 zM57 75q-1 -4 1 -2q9 7 8 9q-2 3 -3 17v5q9 -4 16 -6q2 1 2 2q1 2 0 2l-18 12q-3 29 -1 36q6 -6 13 -12q9 -8 16 -16q5 -6 2 1q-28 34 -54 55q-7 8 -20 4q-5 -1 0 -2q9 2 35 -23q0 -13 -1 -15q-2 -3 2 -5q1 -2 2 -20q-14 7 -22 7q-3 1 -4 0q0 -1 3 -3q15 -7 24 -13v-22 q0 -6 -1 -11zM134 123q-1 -11 -6 -8q-2 2 -6 4q-3 1 -4 2q-7 2 -11 5q1 2 1 20q12 -7 21 -9q2 1 1 2q-2 3 -6 7q-5 2 -6 4l-3 3v1q-3 1 -1 -3q1 -3 0 -3q-1 -1 -6 0q-1 14 1 22q1 0 4 -1q8 -3 13 -6h1q3 -2 9 -1q-2 -22 -2 -39zM182 99q-1 -3 2 -1q11 13 11 14q-2 5 -3 10 t0 11q0 55 10 87q1 3 -2 4t-4 -1q-2 -2 -4 -6q-5 -8 -8 -10l-3 -3q-6 -3 -8 -9q-4 -5 1 -1q12 10 16 11h3t1 -1q-2 -13 -4 -37q-3 -26 -3 -49q0 -8 -5 -19zM137 15q8 -3 15 -1q2 1 3 2q0 2 -2 2q-8 1 -27 38q-17 31 -46 68q-5 5 -1 -1q30 -43 57 -94q6 -12 1 -11q-3 0 -3 -1 t3 -2zM147 30q14 2 19 12q18 30 44 63q4 6 11 5q13 0 31 4q6 3 0 2h-13h-12q-10 2 -17 -7q-14 -17 -30 -39q-14 -20 -18 -27t-16 -11q-3 -1 1 -2zM178 77q2 1 2 3q-1 2 -3 2q-18 1 -46 12q-8 3 -18 -1q-6 -1 1 -2q28 -2 40 -13q3 -4 9 -3q6 3 15 2zM79 49q2 1 6 1q4 1 7 1 q3 4 -1 5q-11 -1 -39 11q-10 4 -20 2q-3 0 -3 -1t3 -2q18 -2 34 -9q7 -3 8 -6q1 -4 5 -2zM164 137q7 14 7 31q-1 3 -3 1q-5 -10 -7 -12q-2 -1 -2 -2t3 -2q3 0 0 -15q0 -4 2 -1z"
     id="path2"
     style="fill:none;stroke:#c40000;stroke-opacity:1" />
  <path
     style="fill:none;stroke:#000000;stroke-width:1px;stroke-linecap:butt;stroke-linejoin:miter;stroke-opacity:1"
     d="M 32,69 79,49 91,56"
     id="path1167" />
  <path
     style="fill:none;stroke:#000000;stroke-width:1px;stroke-linecap:butt;stroke-linejoin:miter;stroke-opacity:1"
     d="m 35,124 c 22,-7 46,-24 46,-24"
     id="path1169" />
  <path
     style="fill:none;stroke:#000000;stroke-width:1px;stroke-linecap:butt;stroke-linejoin:miter;stroke-opacity:1"
     d="m 58,73 8,9 -7.009174,80.05505"
     id="path1171" />
  <path
     style="fill:none;stroke:#000000;stroke-width:1px;stroke-linecap:butt;stroke-linejoin:miter;stroke-opacity:1"
     d="m 19,182 c 0,0 8.899083,1.10092 14.449541,-1.44954 C 39,178 93,123 93,123"
     id="path1173" />
  <path
     style="fill:none;stroke:#000000;stroke-width:1px;stroke-linecap:butt;stroke-linejoin:miter;stroke-opacity:1"
     d="m 137,15 c 8.88991,0.853211 2.43119,14.357798 2.43119,14.357798 L 80,124"
     id="path1210" />
  <path
     style="fill:none;stroke:#000000;stroke-width:1px;stroke-linecap:butt;stroke-linejoin:miter;stroke-opacity:1"
     d="m 147,30 c 0,0 9.16514,1.155963 19,12 9.83486,10.844037 49.46789,71.3211 49.46789,71.3211 L 252,116"
     id="path1212" />
  <path
     style="fill:none;stroke:#000000;stroke-width:1px;stroke-linecap:butt;stroke-linejoin:miter;stroke-opacity:1"
     d="M 113,93 126.80734,93.944954 163,75 l 17,5"
     id="path1214" />
  <path
     style="fill:none;stroke:#000000;stroke-width:1px;stroke-linecap:butt;stroke-linejoin:miter;stroke-opacity:1"
     d="m 107,126 1.01835,84.78899"
     id="path1216" />
  <path
     style="fill:none;stroke:#000000;stroke-width:1px;stroke-linecap:butt;stroke-linejoin:miter;stroke-opacity:1"
     d="m 107,126 27,-16 13,12 -6,7 c 0,0 -6.26606,17.78899 -3.0367,45.38532 C 141.19266,201.98165 149,213 149,213 l -26,-16"
     id="path1253" />
  <path
     style="fill:none;stroke:#000000;stroke-width:1px;stroke-linecap:butt;stroke-linejoin:miter;stroke-opacity:1"
     d="m 108,148 c 6,0 21,-11 21,-11 l -14,16"
     id="path1255" />
  <path
     style="fill:none;stroke:#000000;stroke-width:1px;stroke-linecap:butt;stroke-linejoin:miter;stroke-opacity:1"
     d="m 109,173 27,-11"
     id="path1257" />
  <path
     style="fill:none;stroke:#000000;stroke-width:1px;stroke-linecap:butt;stroke-linejoin:miter;stroke-opacity:1"
     d="m 164,137 c -2,1 4,32 4,32"
     id="path1259" />
  <path
     style="fill:none;stroke:#000000;stroke-width:1px;stroke-linecap:butt;stroke-linejoin:miter;stroke-opacity:1"
     d="m 184,98 8.86239,20.01835 L 196,223 167.61468,188.18349"
     id="path1261" />
</svg>
